<svg xmlns="http://www.w3.org/2000/svg" width="32" height="33" viewBox="0 0 32 33">
  <g id="Person" transform="translate(-1256 -3484.5)">
    <rect id="Rechteck_111" data-name="Rechteck 111" width="32" height="32" transform="translate(1256 3485)" fill="#fff" opacity="0"/>
    <path id="Schnittmenge_4" data-name="Schnittmenge 4" d="M-9900.238-10c-.275-4.4-.527-8.81-.781-13.215-.158-2.725,1.029-3.982,3.781-3.993,2.711-.012,5.42,0,8.129,0,.9,0,1.807,0,2.709,0,1.887,0,3.773-.006,5.66.01,2.4.019,3.48,1.03,3.406,3.438-.105,3.574-.34,7.146-.561,10.715q-.1,1.526-.205,3.05Zm11.182-19.681a6.2,6.2,0,0,1-6.172-6.226A5.963,5.963,0,0,1-9889.2-42a5.978,5.978,0,0,1,6.146,6.108,6.146,6.146,0,0,1-5.965,6.21Z" transform="translate(11161.182 3526.999)" stroke="rgba(0,0,0,0)" stroke-miterlimit="10" stroke-width="1"/>
  </g>
</svg>
