<svg xmlns="http://www.w3.org/2000/svg" width="260" height="260" viewBox="0 0 260 260">
  <g id="Membership" transform="translate(-948 -1524.5)">
    <rect id="Rechteck_146" data-name="Rechteck 146" width="260" height="260" transform="translate(948 1524.5)" fill="none"/>
    <g id="Gruppe_270" data-name="Gruppe 270" transform="translate(948 1528.469)">
      <g id="Gruppe_52" data-name="Gruppe 52">
        <path id="Pfad_234" data-name="Pfad 234" d="M1037.307,445.322l124.342-71.387-3.611,169.209-102.553,74.723c-9.4,5.861-19.637-1.123-19.637-11.778,0-20.906,1.459-160.767,1.459-160.767" transform="translate(-1035.848 -373.935)" fill="#757575"/>
        <path id="Pfad_235" data-name="Pfad 235" d="M1031.553,449.283l125.3-72.061-3.53,163.31-107.547,63.847c0,15.669-15.651,11.583-15.651,1.17,0-20.424,1.425-156.265,1.425-156.265" transform="translate(-1025.478 -374.018)" fill="#b9b8b8"/>
        <path id="Pfad_236" data-name="Pfad 236" d="M1026.806,451.585l124.343-71.358-3.613,169.14L1035.418,604.43c0,11.185-10.066,5.375-10.066-.232,0-20.9,1.454-152.613,1.454-152.613" transform="translate(-1015.116 -374.093)" fill="#979696"/>
        <path id="Pfad_237" data-name="Pfad 237" d="M1021.047,455.546l125.308-72.032-3.535,160.766L1025.043,602.64c-3.579,3.588-5.416,1-5.416-.2,0-20.415,1.42-146.892,1.42-146.892" transform="translate(-1004.741 -374.176)" fill="#b9b8b8"/>
        <path id="Pfad_238" data-name="Pfad 238" d="M1014.5,459.484l126.287-72.821-3.53,155.911L1024.588,610.4c-4.6,2.562-11.1,1.787-11.1-8.621,0-20.418,1.013-142.29,1.013-142.29" transform="translate(-993.183 -374.255)" fill="#979696"/>
        <path id="Pfad_239" data-name="Pfad 239" d="M1006.432,516.917l1.46-53.344L1135.73,390.02V528.17l-129.3,78.238" transform="translate(-981.252 -374.34)" fill="#fff"/>
        <path id="Pfad_240" data-name="Pfad 240" d="M1124.074,427.281,1017.469,491.3V473.8l106.606-64.019Z" transform="translate(-980.356 -374.837)" fill="#979696"/>
        <path id="Pfad_241" data-name="Pfad 241" d="M1011.974,611.506c0,4.994,0,7.4-5.542,11.85.51-.421,125.871-76.839,125.871-76.839s8.97-3.651,8.97-13.795" transform="translate(-986.795 -379.437)" fill="#dededd"/>
        <path id="Pfad_242" data-name="Pfad 242" d="M1125.083,551.132l-67.524,38.921V499.91l67.524-38.916Z" transform="translate(-1020.446 -377.632)" fill="#ee8023"/>
        <path id="Pfad_243" data-name="Pfad 243" d="M1017.469,511.127l30.4-17.659v4.466l-30.4,17.659Z" transform="translate(-904.153 -377.721)" fill="#979696"/>
        <path id="Pfad_244" data-name="Pfad 244" d="M1017.469,526.1l33.709-20.331v22.751l-33.709,20.331Z" transform="translate(-907.459 -378.199)" fill="#b9b8b8"/>
        <path id="Pfad_245" data-name="Pfad 245" d="M1017.469,477.646l35.2-20.821v4.461l-35.2,20.821Z" transform="translate(-908.953 -376.568)" fill="#979696"/>
        <path id="Pfad_246" data-name="Pfad 246" d="M1017.468,500.676l27.711-16.369v4.466l-27.711,16.365Z" transform="translate(-901.461 -377.427)" fill="#979696"/>
        <path id="Pfad_247" data-name="Pfad 247" d="M1017.469,465.024l30.4-17.659v4.461l-30.4,17.664Z" transform="translate(-904.153 -376.261)" fill="#979696"/>
        <path id="Pfad_248" data-name="Pfad 248" d="M1017.468,454.567,1045.18,438.2v4.466l-27.711,16.365Z" transform="translate(-901.461 -375.968)" fill="#979696"/>
        <path id="Pfad_249" data-name="Pfad 249" d="M1017.469,494.951l33.5-19.807v4.466l-33.5,19.807Z" transform="translate(-907.246 -377.147)" fill="#979696"/>
        <path id="Pfad_250" data-name="Pfad 250" d="M1017.468,482.357l27.711-16.37v4.466l-27.711,16.365Z" transform="translate(-901.461 -376.847)" fill="#979696"/>
        <path id="Pfad_1254" data-name="Pfad 1254" d="M271.976,654.9c-4.943-2.124-12.95,2.577-17.89,10.5-4.936-2.121-12.947,2.58-17.886,10.5s-4.94,16.069,0,18.194l17.886,7.689,17.89-28.695c4.94-7.924,4.94-16.073,0-18.194" transform="translate(-182.229 -533.357)" fill="#fff"/>
      </g>
      <g id="Gruppe_267" data-name="Gruppe 267" transform="translate(141.566 37.894)">
        <path id="Pfad_1248" data-name="Pfad 1248" d="M595.35,316.394v83.79l73.932-41.543V274.146Z" transform="translate(-560.848 -200.873)" fill="#838b88"/>
        <g id="Gruppe_266" data-name="Gruppe 266" transform="translate(50.461 105.635)">
          <ellipse id="Ellipse_1" data-name="Ellipse 1" cx="15.279" cy="8.799" rx="15.279" ry="8.799" transform="matrix(0.671, -0.742, 0.742, 0.671, 6.493, 22.661)" fill="#fff"/>
          <path id="Pfad_1249" data-name="Pfad 1249" d="M624.793,302.548c-12.765,6.712-23.121,21.516-23.268,33.188l46.537-24.465C647.914,299.754,637.561,295.836,624.793,302.548Z" transform="translate(-601.525 -266.705)" fill="#fff"/>
        </g>
        <path id="Pfad_1250" data-name="Pfad 1250" d="M582,282.592l34.5,20.419V386.8L582,368.495Z" transform="translate(-582.001 -187.491)" fill="#c5c6c5"/>
        <path id="Pfad_1251" data-name="Pfad 1251" d="M582,306.722l34.5,20.534,73.932-42.247-41.543-17.718Z" transform="translate(-582.001 -211.735)" fill="#e4e1e3"/>
        <ellipse id="Ellipse_2" data-name="Ellipse 2" cx="9.679" cy="5.457" rx="9.679" ry="5.457" transform="translate(21.937 89.644)" fill="#8b8b8b"/>
        <path id="Pfad_1252" data-name="Pfad 1252" d="M633.27,245.841c-18.017,1.018-31.813,12.868-36.514,20.772-6.048,10.167-7.249,21.5-7.453,24.176h-.039V313.5h.168c.791,2.564,4.735,4.518,9.511,4.518s8.717-1.954,9.511-4.518h.168V292.2c.008-1.073.233-9.868,5.456-16.83s12.243-11.333,15.786-11.579a2.876,2.876,0,0,1,3.406,2.817v54.921c0,3.013,4.334,5.456,9.679,5.456s9.679-2.442,9.679-5.456V266.613S654.036,244.667,633.27,245.841Z" transform="translate(-570.494 -245.795)" fill="#c2c2c2"/>
      </g>
    </g>
  </g>
</svg>
