<svg xmlns="http://www.w3.org/2000/svg" width="189" height="88" viewBox="0 0 189 88">
  <g id="Gruppe_368" data-name="Gruppe 368" transform="translate(-1115 -10149)">
    <g id="Logo" transform="translate(1115 10149)">
      <path id="Pfad_1" data-name="Pfad 1" d="M468.213,199.366h7.536v14.462a24.6,24.6,0,0,1-14.41,4.532c-11.2,0-19.452-7.689-19.452-18.434s8.25-18.433,19.6-18.433c6.263,0,11.457,2.139,14.919,6.161l-5.295,4.888a12.064,12.064,0,0,0-9.217-4.023c-6.925,0-11.662,4.634-11.662,11.406,0,6.671,4.736,11.406,11.559,11.406a13.1,13.1,0,0,0,6.416-1.527Zm-32.03,18.382-.1-35.644h-6.772l-13.137,22.151L402.83,182.1h-6.824v35.644h7.74V196.82l10.439,17.161H417.9l10.489-17.619.051,21.387Zm-65.738-6.721,19.5-23.576V182.1H359.956v6.721H379.1L359.548,212.4v5.346h31.163v-6.721Z" transform="translate(-287.411 -169.064)"/>
      <path id="Pfad_2" data-name="Pfad 2" d="M248.069,152.642l-9.242-6.193-10.934-2.164,8.657,7.622Z" transform="translate(-199.423 -144.286)" fill="#e3e4e4"/>
      <path id="Pfad_3" data-name="Pfad 3" d="M142.476,229.7l2.158,10.94,6.2,9.236-.782-11.492Z" transform="translate(-142.476 -201.169)" fill="#00a0de"/>
      <path id="Pfad_4" data-name="Pfad 4" d="M167.495,290.1l9.254,6.218,10.923,2.138L179,290.9Z" transform="translate(-159.137 -241.392)" fill="#00a0de"/>
      <path id="Pfad_5" data-name="Pfad 5" d="M150.833,169.3l-6.2,9.261-2.158,10.915,7.613-8.67Z" transform="translate(-142.476 -160.946)" fill="#e3e4e4"/>
      <path id="Pfad_6" data-name="Pfad 6" d="M187.67,144.286l-10.921,2.164-9.255,6.194,11.514-.735Z" transform="translate(-159.137 -144.286)" fill="#00a0de"/>
      <path id="Pfad_7" data-name="Pfad 7" d="M288.292,169.3l.763,11.506,7.595,8.67L294.5,178.564Z" transform="translate(-239.684 -160.946)" fill="#00a0de"/>
      <path id="Pfad_8" data-name="Pfad 8" d="M227.9,298.457l10.932-2.138,9.242-6.218-11.483.794Z" transform="translate(-199.426 -241.392)" fill="#ee8018"/>
      <path id="Pfad_9" data-name="Pfad 9" d="M288.292,249.878l6.212-9.236,2.146-10.94-7.587,8.677Z" transform="translate(-239.684 -201.169)"/>
      <path id="Pfad_10" data-name="Pfad 10" d="M165.155,238.388l8.888,3.379-4.96-12.061Z" transform="translate(-157.579 -201.172)" fill="#00a0de"/>
      <path id="Pfad_11" data-name="Pfad 11" d="M165.267,197.034l3.89,8.671,5.006-12.038Z" transform="translate(-157.654 -177.171)" fill="#00a0de"/>
      <path id="Pfad_12" data-name="Pfad 12" d="M195.154,274.721l8.675-3.9-12.068-5.011Z" transform="translate(-175.297 -225.216)" fill="#e3e4e4"/>
      <path id="Pfad_13" data-name="Pfad 13" d="M272.88,238.384l-3.909-8.674-4.978,12.059Z" transform="translate(-223.485 -201.175)" fill="#00a0de"/>
      <path id="Pfad_14" data-name="Pfad 14" d="M236.585,274.718l3.365-8.908-12.06,5.011Z" transform="translate(-199.418 -225.215)" fill="#00a0de"/>
      <path id="Pfad_15" data-name="Pfad 15" d="M236.55,167.1l-8.657,3.909,12.03,4.975Z" transform="translate(-199.421 -159.481)" fill="#00a0de"/>
      <path id="Pfad_16" data-name="Pfad 16" d="M268.913,205.727l3.9-8.673-8.909-3.357Z" transform="translate(-223.427 -177.191)" fill="#ee8018"/>
      <path id="Pfad_17" data-name="Pfad 17" d="M195.26,167.1l-3.362,8.873,12.022-4.965Z" transform="translate(-175.389 -159.482)" fill="#00a0de"/>
      <path id="Pfad_18" data-name="Pfad 18" d="M227.887,178.8" transform="translate(-199.356 -167.274)" fill="#009ee0"/>
      <path id="Pfad_19" data-name="Pfad 19" d="M142.476,212.417l7.613-8.67,3.89,8.671-3.927,8.683Z" transform="translate(-142.476 -183.884)"/>
      <path id="Pfad_20" data-name="Pfad 20" d="M165.267,179.344l.744-11.506,11.513-.735-3.362,8.874Z" transform="translate(-157.654 -159.481)"/>
      <path id="Pfad_21" data-name="Pfad 21" d="M165.155,255.7l8.888,3.379,3.394,8.912-11.5-.8Z" transform="translate(-157.579 -218.481)"/>
      <path id="Pfad_22" data-name="Pfad 22" d="M201.918,284.711l8.675-3.9,8.7,3.9-8.693,7.563Z" transform="translate(-182.062 -235.206)"/>
      <path id="Pfad_23" data-name="Pfad 23" d="M253.808,167.1l11.519.735.763,11.506-8.909-3.356Z" transform="translate(-216.697 -159.481)"/>
      <path id="Pfad_24" data-name="Pfad 24" d="M210.624,144.286l-8.663,7.622,8.663,3.909,8.657-3.909Z" transform="translate(-182.09 -144.286)" fill="#fff"/>
      <path id="Pfad_25" data-name="Pfad 25" d="M193.942,178.805l-12.024,4.965-5.006,12.038,4.96,12.061,12.068,5.011L206,207.869l4.979-12.058-5.007-12.03Z" transform="translate(-165.409 -167.274)" fill="#fff"/>
      <path id="Pfad_26" data-name="Pfad 26" d="M282.8,203.746l-3.9,8.674,3.909,8.673,7.587-8.677Z" transform="translate(-233.421 -183.884)" fill="#fff"/>
      <path id="Pfad_27" data-name="Pfad 27" d="M257.285,259.061l8.887-3.385-.77,11.5-11.481.794Z" transform="translate(-216.772 -218.467)" fill="#fff"/>
    </g>
    <path id="Pfad_1279" data-name="Pfad 1279" d="M.913-7.666H4.527a5.071,5.071,0,0,1,2.29.5A3.7,3.7,0,0,1,8.362-5.776a3.93,3.93,0,0,1,.551,2.1,3.93,3.93,0,0,1-.551,2.1A3.7,3.7,0,0,1,6.817-.191a5.071,5.071,0,0,1-2.29.5H.913ZM4.436-1.21a2.67,2.67,0,0,0,1.9-.666,2.355,2.355,0,0,0,.71-1.8,2.355,2.355,0,0,0-.71-1.8,2.67,2.67,0,0,0-1.9-.666H2.754V-1.21Zm8.205-4.7a3.178,3.178,0,0,1,2.182.678,2.6,2.6,0,0,1,.761,2.044V.3H13.925V-.458A1.974,1.974,0,0,1,12.061.4,2.888,2.888,0,0,1,10.84.157a1.823,1.823,0,0,1-.79-.66,1.721,1.721,0,0,1-.273-.957A1.6,1.6,0,0,1,10.419-2.8a3.267,3.267,0,0,1,1.983-.49h1.409a1.133,1.133,0,0,0-.352-.894A1.55,1.55,0,0,0,12.4-4.5a3.08,3.08,0,0,0-.96.154,2.539,2.539,0,0,0-.8.416L10-5.173a3.836,3.836,0,0,1,1.2-.547A5.361,5.361,0,0,1,12.641-5.913ZM12.5-.8a1.542,1.542,0,0,0,.807-.211,1.152,1.152,0,0,0,.5-.621v-.626H12.6q-1.091,0-1.091.717A.639.639,0,0,0,11.772-1,1.2,1.2,0,0,0,12.5-.8ZM21.13.009a1.821,1.821,0,0,1-.642.29,3.24,3.24,0,0,1-.8.1A2.377,2.377,0,0,1,18-.162a2.138,2.138,0,0,1-.6-1.64V-4.319h-.943V-5.685H17.4V-7.177h1.773v1.492H20.7v1.366H19.176v2.494a.837.837,0,0,0,.2.6.736.736,0,0,0,.563.211,1.138,1.138,0,0,0,.716-.228Zm6.8-2.744q0,.034-.034.478H23.267a1.444,1.444,0,0,0,.591.9,1.954,1.954,0,0,0,1.159.33,2.343,2.343,0,0,0,.847-.142,2.05,2.05,0,0,0,.688-.45l.943,1.025A3.167,3.167,0,0,1,24.971.4a3.984,3.984,0,0,1-1.83-.4A2.96,2.96,0,0,1,21.914-1.13a3.1,3.1,0,0,1-.432-1.628,3.135,3.135,0,0,1,.426-1.623,2.988,2.988,0,0,1,1.171-1.127,3.431,3.431,0,0,1,1.665-.4,3.4,3.4,0,0,1,1.625.387,2.823,2.823,0,0,1,1.142,1.11A3.316,3.316,0,0,1,27.926-2.736ZM24.755-4.569a1.525,1.525,0,0,0-1.011.342,1.455,1.455,0,0,0-.5.934h3.012a1.47,1.47,0,0,0-.5-.928A1.493,1.493,0,0,0,24.755-4.569Zm8.069-1.344a2.513,2.513,0,0,1,1.835.683,2.713,2.713,0,0,1,.7,2.027V.3H33.586V-2.929a1.6,1.6,0,0,0-.318-1.087,1.166,1.166,0,0,0-.921-.359,1.409,1.409,0,0,0-1.068.416,1.723,1.723,0,0,0-.4,1.236V.3H29.108V-5.822H30.8V-5.1a2.351,2.351,0,0,1,.875-.6A3.043,3.043,0,0,1,32.824-5.913Zm4.818,4.1a1.071,1.071,0,0,1,.784.3,1.06,1.06,0,0,1,.307.791,1.875,1.875,0,0,1-.057.455,5.149,5.149,0,0,1-.25.683l-.648,1.64H36.654l.5-1.811a.934.934,0,0,1-.449-.37,1.081,1.081,0,0,1-.165-.6,1.05,1.05,0,0,1,.313-.791A1.091,1.091,0,0,1,37.643-1.813ZM55.3-7.666,52.7.3H50.723l-1.75-5.4L47.166.3H45.2L42.586-7.666H44.5l1.8,5.6,1.875-5.6h1.7l1.818,5.648,1.852-5.648Zm1.011,1.845h1.773V.3H56.314Zm.886-.854a1.123,1.123,0,0,1-.8-.285.924.924,0,0,1-.307-.706.924.924,0,0,1,.307-.706,1.123,1.123,0,0,1,.8-.285,1.151,1.151,0,0,1,.8.273A.877.877,0,0,1,58.3-7.7.968.968,0,0,1,58-6.966,1.11,1.11,0,0,1,57.2-6.676ZM61.792.4A5.928,5.928,0,0,1,60.3.208a3.885,3.885,0,0,1-1.159-.473l.591-1.275a3.715,3.715,0,0,0,.989.427,4.136,4.136,0,0,0,1.136.165q1.125,0,1.125-.558a.4.4,0,0,0-.307-.376,4.537,4.537,0,0,0-.943-.194A9.084,9.084,0,0,1,60.5-2.337a1.921,1.921,0,0,1-.847-.524,1.491,1.491,0,0,1-.358-1.07,1.679,1.679,0,0,1,.335-1.031,2.158,2.158,0,0,1,.977-.7,4.167,4.167,0,0,1,1.517-.251,5.943,5.943,0,0,1,1.29.142,3.6,3.6,0,0,1,1.063.393l-.591,1.264a3.522,3.522,0,0,0-1.761-.455,1.789,1.789,0,0,0-.852.159.469.469,0,0,0-.284.41.407.407,0,0,0,.307.4,5.423,5.423,0,0,0,.977.216,10.443,10.443,0,0,1,1.227.268,1.843,1.843,0,0,1,.83.518,1.472,1.472,0,0,1,.352,1.048,1.62,1.62,0,0,1-.341,1.013,2.176,2.176,0,0,1-.994.689A4.422,4.422,0,0,1,61.792.4Zm6.034,0A5.928,5.928,0,0,1,66.338.208a3.885,3.885,0,0,1-1.159-.473L65.77-1.54a3.716,3.716,0,0,0,.989.427,4.136,4.136,0,0,0,1.136.165q1.125,0,1.125-.558a.4.4,0,0,0-.307-.376,4.537,4.537,0,0,0-.943-.194,9.083,9.083,0,0,1-1.239-.262,1.921,1.921,0,0,1-.847-.524,1.491,1.491,0,0,1-.358-1.07,1.679,1.679,0,0,1,.335-1.031,2.158,2.158,0,0,1,.977-.7,4.167,4.167,0,0,1,1.517-.251,5.943,5.943,0,0,1,1.29.142,3.6,3.6,0,0,1,1.063.393l-.591,1.264a3.522,3.522,0,0,0-1.761-.455,1.789,1.789,0,0,0-.852.159A.469.469,0,0,0,67.02-4a.407.407,0,0,0,.307.4,5.423,5.423,0,0,0,.977.216,10.444,10.444,0,0,1,1.227.268,1.843,1.843,0,0,1,.83.518,1.472,1.472,0,0,1,.352,1.048,1.62,1.62,0,0,1-.341,1.013,2.176,2.176,0,0,1-.994.689A4.422,4.422,0,0,1,67.826.4Zm9.967-3.131q0,.034-.034.478H73.134a1.444,1.444,0,0,0,.591.9,1.955,1.955,0,0,0,1.159.33,2.343,2.343,0,0,0,.847-.142,2.05,2.05,0,0,0,.688-.45l.943,1.025A3.167,3.167,0,0,1,74.838.4a3.984,3.984,0,0,1-1.83-.4A2.96,2.96,0,0,1,71.781-1.13a3.1,3.1,0,0,1-.432-1.628,3.136,3.136,0,0,1,.426-1.623,2.988,2.988,0,0,1,1.171-1.127,3.431,3.431,0,0,1,1.665-.4,3.4,3.4,0,0,1,1.625.387,2.823,2.823,0,0,1,1.142,1.11A3.316,3.316,0,0,1,77.793-2.736ZM74.622-4.569a1.525,1.525,0,0,0-1.011.342,1.455,1.455,0,0,0-.5.934h3.012a1.47,1.47,0,0,0-.5-.928A1.493,1.493,0,0,0,74.622-4.569Zm8.069-1.344a2.513,2.513,0,0,1,1.835.683,2.713,2.713,0,0,1,.7,2.027V.3H83.452V-2.929a1.6,1.6,0,0,0-.318-1.087,1.166,1.166,0,0,0-.921-.359,1.409,1.409,0,0,0-1.068.416,1.723,1.723,0,0,0-.4,1.236V.3H78.975V-5.822h1.693V-5.1a2.351,2.351,0,0,1,.875-.6A3.043,3.043,0,0,1,82.691-5.913ZM96.2-5.822V.3H94.521V-.424a2.352,2.352,0,0,1-.841.609A2.641,2.641,0,0,1,92.624.4,2.6,2.6,0,0,1,90.714-.3a2.772,2.772,0,0,1-.7-2.061V-5.822h1.773v3.2q0,1.48,1.239,1.48a1.33,1.33,0,0,0,1.023-.416,1.756,1.756,0,0,0,.386-1.236V-5.822Zm5.364-.091a2.513,2.513,0,0,1,1.835.683,2.713,2.713,0,0,1,.7,2.027V.3h-1.773V-2.929a1.6,1.6,0,0,0-.318-1.087,1.166,1.166,0,0,0-.921-.359,1.409,1.409,0,0,0-1.068.416,1.723,1.723,0,0,0-.4,1.236V.3H97.851V-5.822h1.693V-5.1a2.351,2.351,0,0,1,.875-.6A3.043,3.043,0,0,1,101.567-5.913ZM112-8.145V.3h-1.693V-.4A2.336,2.336,0,0,1,108.4.4a3.17,3.17,0,0,1-1.563-.387,2.769,2.769,0,0,1-1.1-1.1,3.372,3.372,0,0,1-.4-1.663,3.372,3.372,0,0,1,.4-1.663,2.769,2.769,0,0,1,1.1-1.1,3.17,3.17,0,0,1,1.563-.387,2.323,2.323,0,0,1,1.83.74V-8.145Zm-3.3,7.083a1.48,1.48,0,0,0,1.114-.461,1.708,1.708,0,0,0,.443-1.236,1.708,1.708,0,0,0-.443-1.236,1.48,1.48,0,0,0-1.114-.461,1.493,1.493,0,0,0-1.125.461,1.708,1.708,0,0,0-.443,1.236,1.708,1.708,0,0,0,.443,1.236A1.493,1.493,0,0,0,108.7-1.062Zm9.921-5.1H116.08v-1.5h6.932v1.5h-2.546V.3h-1.841ZM129.24-2.736q0,.034-.034.478H124.58a1.444,1.444,0,0,0,.591.9,1.955,1.955,0,0,0,1.159.33,2.343,2.343,0,0,0,.847-.142,2.05,2.05,0,0,0,.688-.45l.943,1.025A3.167,3.167,0,0,1,126.285.4a3.984,3.984,0,0,1-1.83-.4,2.96,2.96,0,0,1-1.227-1.122,3.1,3.1,0,0,1-.432-1.628,3.135,3.135,0,0,1,.426-1.623,2.988,2.988,0,0,1,1.171-1.127,3.431,3.431,0,0,1,1.665-.4,3.4,3.4,0,0,1,1.625.387,2.823,2.823,0,0,1,1.142,1.11A3.316,3.316,0,0,1,129.24-2.736Zm-3.171-1.833a1.525,1.525,0,0,0-1.011.342,1.455,1.455,0,0,0-.5.934h3.012a1.47,1.47,0,0,0-.5-.928A1.493,1.493,0,0,0,126.069-4.569ZM133.376.4a3.753,3.753,0,0,1-1.756-.4A3.023,3.023,0,0,1,130.4-1.13a3.064,3.064,0,0,1-.438-1.628,3.064,3.064,0,0,1,.438-1.628,3.023,3.023,0,0,1,1.216-1.122,3.753,3.753,0,0,1,1.756-.4,3.4,3.4,0,0,1,1.688.4,2.4,2.4,0,0,1,1.051,1.156l-1.375.74a1.5,1.5,0,0,0-1.375-.843A1.554,1.554,0,0,0,132.217-4a1.679,1.679,0,0,0-.455,1.241,1.679,1.679,0,0,0,.455,1.241,1.554,1.554,0,0,0,1.148.455A1.487,1.487,0,0,0,134.74-1.9l1.375.752a2.444,2.444,0,0,1-1.051,1.139A3.359,3.359,0,0,1,133.376.4Zm7.432-6.308a2.513,2.513,0,0,1,1.835.683,2.712,2.712,0,0,1,.7,2.027V.3H141.57V-2.929a1.6,1.6,0,0,0-.318-1.087,1.166,1.166,0,0,0-.921-.359,1.409,1.409,0,0,0-1.068.416,1.723,1.723,0,0,0-.4,1.236V.3h-1.773V-8.145h1.773v2.961a2.358,2.358,0,0,1,.852-.541A3.078,3.078,0,0,1,140.809-5.913Zm7.853,0a2.513,2.513,0,0,1,1.835.683,2.713,2.713,0,0,1,.7,2.027V.3h-1.773V-2.929a1.6,1.6,0,0,0-.318-1.087,1.166,1.166,0,0,0-.921-.359,1.409,1.409,0,0,0-1.068.416,1.723,1.723,0,0,0-.4,1.236V.3h-1.773V-5.822h1.693V-5.1a2.351,2.351,0,0,1,.875-.6A3.044,3.044,0,0,1,148.661-5.913ZM155.775.4a3.66,3.66,0,0,1-1.733-.4,3,3,0,0,1-1.2-1.122,3.1,3.1,0,0,1-.432-1.628,3.1,3.1,0,0,1,.432-1.628,3,3,0,0,1,1.2-1.122,3.66,3.66,0,0,1,1.733-.4,3.627,3.627,0,0,1,1.727.4A3.011,3.011,0,0,1,158.7-4.387a3.1,3.1,0,0,1,.432,1.628A3.1,3.1,0,0,1,158.7-1.13,3.011,3.011,0,0,1,157.5-.008,3.627,3.627,0,0,1,155.775.4Zm0-1.458a1.475,1.475,0,0,0,1.119-.461,1.721,1.721,0,0,0,.438-1.236,1.721,1.721,0,0,0-.438-1.236,1.475,1.475,0,0,0-1.119-.461,1.493,1.493,0,0,0-1.125.461,1.708,1.708,0,0,0-.443,1.236,1.708,1.708,0,0,0,.443,1.236A1.493,1.493,0,0,0,155.775-1.062Zm4.534-7.083h1.773V.3H160.31ZM166.64.4a3.66,3.66,0,0,1-1.733-.4,3,3,0,0,1-1.2-1.122,3.1,3.1,0,0,1-.432-1.628,3.1,3.1,0,0,1,.432-1.628,3,3,0,0,1,1.2-1.122,3.66,3.66,0,0,1,1.733-.4,3.627,3.627,0,0,1,1.727.4,3.011,3.011,0,0,1,1.193,1.122,3.1,3.1,0,0,1,.432,1.628,3.1,3.1,0,0,1-.432,1.628,3.011,3.011,0,0,1-1.193,1.122A3.627,3.627,0,0,1,166.64.4Zm0-1.458a1.475,1.475,0,0,0,1.119-.461,1.721,1.721,0,0,0,.438-1.236,1.721,1.721,0,0,0-.438-1.236,1.475,1.475,0,0,0-1.119-.461,1.493,1.493,0,0,0-1.125.461,1.708,1.708,0,0,0-.443,1.236,1.708,1.708,0,0,0,.443,1.236A1.493,1.493,0,0,0,166.64-1.062Zm10.842-4.76v5.1a3.278,3.278,0,0,1-.875,2.505,3.608,3.608,0,0,1-2.557.82,6.383,6.383,0,0,1-1.682-.216,3.674,3.674,0,0,1-1.318-.626l.7-1.275a2.9,2.9,0,0,0,.977.507,3.882,3.882,0,0,0,1.182.188,1.914,1.914,0,0,0,1.358-.416,1.658,1.658,0,0,0,.438-1.258V-.754a2.478,2.478,0,0,1-1.932.763,3.239,3.239,0,0,1-1.54-.37A2.817,2.817,0,0,1,171.129-1.4a2.918,2.918,0,0,1-.409-1.549,2.918,2.918,0,0,1,.409-1.549,2.817,2.817,0,0,1,1.108-1.042,3.239,3.239,0,0,1,1.54-.37,2.424,2.424,0,0,1,2.023.877v-.786Zm-3.352,4.373a1.631,1.631,0,0,0,1.153-.416,1.413,1.413,0,0,0,.449-1.087,1.413,1.413,0,0,0-.449-1.087,1.631,1.631,0,0,0-1.153-.416,1.651,1.651,0,0,0-1.159.416,1.4,1.4,0,0,0-.455,1.087,1.4,1.4,0,0,0,.455,1.087A1.651,1.651,0,0,0,174.129-1.449Zm5-4.373H180.9V.3h-1.773Zm.886-.854a1.123,1.123,0,0,1-.8-.285.924.924,0,0,1-.307-.706.924.924,0,0,1,.307-.706,1.123,1.123,0,0,1,.8-.285,1.151,1.151,0,0,1,.8.273.877.877,0,0,1,.307.683.968.968,0,0,1-.307.734A1.11,1.11,0,0,1,180.016-6.676Zm8.523,3.94q0,.034-.034.478H183.88a1.444,1.444,0,0,0,.591.9,1.954,1.954,0,0,0,1.159.33,2.343,2.343,0,0,0,.847-.142,2.05,2.05,0,0,0,.688-.45l.943,1.025A3.167,3.167,0,0,1,185.584.4a3.984,3.984,0,0,1-1.83-.4,2.96,2.96,0,0,1-1.227-1.122,3.1,3.1,0,0,1-.432-1.628,3.136,3.136,0,0,1,.426-1.623,2.988,2.988,0,0,1,1.171-1.127,3.431,3.431,0,0,1,1.665-.4,3.4,3.4,0,0,1,1.625.387,2.823,2.823,0,0,1,1.142,1.11A3.316,3.316,0,0,1,188.539-2.736Zm-3.171-1.833a1.525,1.525,0,0,0-1.011.342,1.455,1.455,0,0,0-.5.934h3.012a1.47,1.47,0,0,0-.5-.928A1.493,1.493,0,0,0,185.368-4.569Z" transform="translate(1115.461 10234.395)"/>
  </g>
</svg>
